<svg xmlns="http://www.w3.org/2000/svg" xmlns:xlink="http://www.w3.org/1999/xlink" width="1080" zoomAndPan="magnify" viewBox="0 0 810 809.999993" height="1080" preserveAspectRatio="xMidYMid meet" version="1.2"><defs><clipPath id="e6cfad5108"><path d="M 71.664062 32.558594 L 738.414062 32.558594 L 738.414062 777.308594 L 71.664062 777.308594 Z M 71.664062 32.558594 "/></clipPath></defs><g id="8369c606d1"><g clip-rule="nonzero" clip-path="url(#e6cfad5108)"><path style=" stroke:none;fill-rule:nonzero;fill:#0277bd;fill-opacity:1;" d="M 738.316406 32.558594 L 71.761719 32.558594 L 130.574219 698.914062 L 405.039062 777.308594 L 679.5 698.914062 Z M 738.316406 32.558594 "/></g><path style=" stroke:none;fill-rule:nonzero;fill:#039be5;fill-opacity:1;" d="M 405.039062 91.351562 L 405.039062 716.550781 L 624.609375 653.835938 L 673.621094 91.351562 Z M 405.039062 91.351562 "/><path style=" stroke:none;fill-rule:nonzero;fill:#ffffff;fill-opacity:1;" d="M 583.4375 189.347656 L 405.039062 189.347656 L 405.039062 267.742188 L 501.101562 267.742188 L 495.21875 346.136719 L 405.039062 346.136719 L 405.039062 424.53125 L 491.296875 424.53125 L 485.417969 512.726562 L 405.039062 540.164062 L 405.039062 622.476562 L 559.914062 571.519531 L 573.636719 346.136719 Z M 583.4375 189.347656 "/><path style=" stroke:none;fill-rule:nonzero;fill:#eeeeee;fill-opacity:1;" d="M 405.039062 189.347656 L 405.039062 267.742188 L 230.558594 267.742188 L 224.675781 189.347656 Z M 314.859375 346.136719 L 318.777344 424.53125 L 405.039062 424.53125 L 405.039062 346.136719 Z M 322.699219 463.726562 L 244.28125 463.726562 L 250.164062 571.519531 L 405.039062 622.476562 L 405.039062 540.164062 L 324.660156 512.726562 Z M 322.699219 463.726562 "/></g></svg>