<svg xmlns="http://www.w3.org/2000/svg" xmlns:xlink="http://www.w3.org/1999/xlink" width="1080" zoomAndPan="magnify" viewBox="0 0 810 809.999993" height="1080" preserveAspectRatio="xMidYMid meet" version="1.2"><defs><clipPath id="96c3cca214"><path d="M 79.230469 35 L 730.980469 35 L 730.980469 775 L 79.230469 775 Z M 79.230469 35 "/></clipPath></defs><g id="f4de880bdb"><g clip-rule="nonzero" clip-path="url(#96c3cca214)"><path style=" stroke:none;fill-rule:nonzero;fill:#e44d26;fill-opacity:1;" d="M 138.394531 700.597656 L 79.046875 35.351562 L 731.164062 35.351562 L 671.769531 700.503906 L 404.6875 774.464844 Z M 138.394531 700.597656 "/></g><path style=" stroke:none;fill-rule:nonzero;fill:#f16529;fill-opacity:1;" d="M 620.898438 658.144531 L 671.675781 89.746094 L 405.105469 89.746094 L 405.105469 717.945312 Z M 620.898438 658.144531 "/><path style=" stroke:none;fill-rule:nonzero;fill:#ebebeb;fill-opacity:1;" d="M 404.828125 171.328125 L 200.382812 171.328125 L 222.40625 418.0625 L 405.105469 418.0625 L 405.105469 336.480469 L 297.082031 336.480469 L 289.617188 252.933594 L 405.105469 252.933594 L 405.105469 171.328125 Z M 405.105469 548.105469 L 404.757812 548.195312 L 313.835938 523.667969 L 308.058594 458.597656 L 226.058594 458.597656 L 237.5 586.699219 L 404.734375 632.898438 L 405.105469 632.78125 Z M 405.105469 548.105469 "/><path style=" stroke:none;fill-rule:nonzero;fill:#ffffff;fill-opacity:1;" d="M 404.828125 418.0625 L 505.363281 418.0625 L 496.121094 523.851562 L 405.058594 548.402344 L 405.058594 633.289062 L 572.433594 586.933594 L 594.851562 336.433594 L 405.105469 336.433594 Z M 607.378906 193.226562 L 609.320312 171.328125 L 404.78125 171.328125 L 404.78125 252.910156 L 601.972656 252.910156 L 603.589844 234.570312 Z M 607.378906 193.226562 "/></g></svg>